<?xml version="1.0" encoding="utf-8"?>
<!-- Generator: Adobe Illustrator 22.0.0, SVG Export Plug-In . SVG Version: 6.00 Build 0)  -->
<svg version="1.1" id="图层_1" xmlns="http://www.w3.org/2000/svg" xmlns:xlink="http://www.w3.org/1999/xlink" x="0px" y="0px"
	 viewBox="0 0 33 32" style="enable-background:new 0 0 33 32;" xml:space="preserve">
<style type="text/css">
	.st0{clip-path:url(#SVGID_2_);fill:url(#SVGID_3_);}
	.st1{clip-path:url(#SVGID_5_);fill:url(#SVGID_6_);}
	.st2{clip-path:url(#SVGID_8_);fill:url(#SVGID_9_);}
</style>
<g>
	<defs>
		<path id="SVGID_1_" d="M12.5,2.2l9.6,16.7H17l-4.9-8.5l-11,19L1.7,21L12.5,2.2z"/>
	</defs>
	<clipPath id="SVGID_2_">
		<use xlink:href="#SVGID_1_"  style="overflow:visible;"/>
	</clipPath>
	<linearGradient id="SVGID_3_" gradientUnits="userSpaceOnUse" x1="16.5" y1="-5.0417" x2="16.5" y2="37.0417">
		<stop  offset="0" style="stop-color:#E4268C"/>
		<stop  offset="1" style="stop-color:#5E54ED"/>
	</linearGradient>
	<rect x="-4.5" y="-5" class="st0" width="42.1" height="42.1"/>
</g>
<g>
	<defs>
		<path id="SVGID_4_" d="M2.4,30.4L12,13.7l2.6,4.5l-4.9,8.5h22l-7.6,3.7H2.4z"/>
	</defs>
	<clipPath id="SVGID_5_">
		<use xlink:href="#SVGID_4_"  style="overflow:visible;"/>
	</clipPath>
	<linearGradient id="SVGID_6_" gradientUnits="userSpaceOnUse" x1="16.5" y1="-5.0417" x2="16.5" y2="37.0417">
		<stop  offset="0" style="stop-color:#E4268C"/>
		<stop  offset="1" style="stop-color:#5E54ED"/>
	</linearGradient>
	<rect x="-4.5" y="-5" class="st1" width="42.1" height="42.1"/>
</g>
<g>
	<defs>
		<path id="SVGID_7_" d="M31.9,25.1H12.7l2.6-4.5h9.8l-11-19l7,4.7L31.9,25.1z"/>
	</defs>
	<clipPath id="SVGID_8_">
		<use xlink:href="#SVGID_7_"  style="overflow:visible;"/>
	</clipPath>
	<linearGradient id="SVGID_9_" gradientUnits="userSpaceOnUse" x1="16.5" y1="-5.0417" x2="16.5" y2="37.0417">
		<stop  offset="0" style="stop-color:#E4268C"/>
		<stop  offset="1" style="stop-color:#5E54ED"/>
	</linearGradient>
	<rect x="-4.5" y="-5" class="st2" width="42.1" height="42.1"/>
</g>
</svg>
